<svg xmlns="http://www.w3.org/2000/svg" xmlns:xlink="http://www.w3.org/1999/xlink" width="40" zoomAndPan="magnify" viewBox="0 0 30 30.000001" height="40" preserveAspectRatio="xMidYMid meet" version="1.0"><defs><clipPath id="c198f741b6"><path d="M 7.550781 7.851562 L 13.949219 7.851562 L 13.949219 11.402344 L 7.550781 11.402344 Z M 7.550781 7.851562 " clip-rule="nonzero"/></clipPath><clipPath id="a1c132a9ce"><path d="M 10.445312 8.9375 C 10.445312 10.214844 10.648438 10.539062 10.734375 10.519531 C 10.820312 10.503906 10.90625 10.164062 10.921875 9.957031 C 10.941406 9.753906 10.957031 9.480469 10.835938 9.3125 C 10.71875 9.105469 10.394531 8.953125 10.171875 8.867188 C 9.953125 8.78125 9.644531 8.714844 9.492188 8.765625 C 9.390625 8.78125 9.285156 8.917969 9.269531 8.902344 C 9.234375 8.867188 9.765625 7.878906 9.953125 7.863281 C 10.054688 7.847656 10.207031 8.035156 10.222656 8.167969 C 10.257812 8.375 9.816406 8.816406 9.78125 9.054688 C 9.746094 9.191406 9.746094 9.3125 9.796875 9.414062 C 9.847656 9.515625 9.96875 9.550781 10.085938 9.617188 C 10.222656 9.703125 10.378906 9.804688 10.617188 9.875 C 11.042969 9.992188 11.960938 10.09375 12.472656 10.0625 C 12.863281 10.042969 13.410156 9.941406 13.476562 9.804688 C 13.511719 9.71875 13.394531 9.582031 13.273438 9.5 C 13.035156 9.363281 12.25 9.261719 11.894531 9.378906 C 11.621094 9.464844 11.367188 9.738281 11.246094 9.992188 C 11.128906 10.265625 11.195312 10.980469 11.195312 10.980469 C 11.210938 10.980469 11.382812 10.113281 11.28125 9.738281 C 11.179688 9.378906 10.90625 8.988281 10.597656 8.78125 C 10.257812 8.542969 9.679688 8.441406 9.269531 8.492188 C 8.878906 8.527344 8.402344 8.800781 8.214844 8.96875 C 8.113281 9.054688 8.027344 9.15625 8.027344 9.242188 C 8.027344 9.328125 8.09375 9.414062 8.195312 9.449219 C 8.367188 9.550781 8.828125 9.550781 9.132812 9.5 C 9.457031 9.449219 9.882812 9.105469 10.085938 9.15625 C 10.191406 9.175781 10.308594 9.292969 10.308594 9.363281 C 10.328125 9.429688 10.15625 9.582031 10.085938 9.582031 C 10.019531 9.582031 9.867188 9.34375 9.898438 9.277344 C 9.933594 9.226562 10.207031 9.15625 10.257812 9.207031 C 10.308594 9.261719 10.273438 9.464844 10.191406 9.566406 C 10.035156 9.738281 9.527344 9.875 9.132812 9.925781 C 8.691406 9.976562 7.90625 9.957031 7.683594 9.769531 C 7.566406 9.652344 7.550781 9.449219 7.582031 9.277344 C 7.617188 9.074219 7.804688 8.835938 7.976562 8.664062 C 8.113281 8.511719 8.28125 8.390625 8.484375 8.289062 C 8.726562 8.1875 8.980469 8.101562 9.304688 8.101562 C 9.730469 8.101562 10.496094 8.273438 10.871094 8.476562 C 11.128906 8.628906 11.28125 8.78125 11.433594 9.019531 C 11.621094 9.378906 11.757812 10.042969 11.773438 10.4375 C 11.792969 10.707031 11.757812 10.964844 11.671875 11.132812 C 11.621094 11.253906 11.535156 11.355469 11.417969 11.371094 C 11.261719 11.421875 10.972656 11.355469 10.855469 11.238281 C 10.71875 11.117188 10.683594 10.863281 10.683594 10.640625 C 10.683594 10.367188 10.769531 10.007812 10.941406 9.738281 C 11.128906 9.449219 11.449219 9.089844 11.824219 8.96875 C 12.269531 8.835938 13.15625 8.988281 13.496094 9.125 C 13.683594 9.191406 13.820312 9.292969 13.886719 9.429688 C 13.957031 9.550781 13.957031 9.738281 13.902344 9.875 C 13.871094 9.992188 13.785156 10.078125 13.648438 10.164062 C 13.410156 10.316406 12.917969 10.453125 12.457031 10.488281 C 11.875 10.519531 10.90625 10.402344 10.429688 10.265625 C 10.15625 10.195312 9.96875 10.09375 9.796875 9.976562 C 9.628906 9.875 9.457031 9.738281 9.355469 9.601562 C 9.285156 9.480469 9.234375 9.363281 9.253906 9.191406 C 9.285156 8.867188 9.679688 7.929688 9.882812 7.878906 C 10.003906 7.847656 10.191406 7.980469 10.242188 8.101562 C 10.292969 8.289062 10.085938 8.78125 9.898438 8.953125 C 9.746094 9.105469 9.441406 9.207031 9.253906 9.191406 C 9.117188 9.175781 8.929688 9.074219 8.878906 8.96875 C 8.84375 8.886719 8.84375 8.765625 8.894531 8.679688 C 8.980469 8.542969 9.269531 8.375 9.507812 8.324219 C 9.746094 8.289062 10.070312 8.355469 10.34375 8.476562 C 10.667969 8.613281 11.09375 8.902344 11.261719 9.140625 C 11.367188 9.292969 11.398438 9.449219 11.417969 9.652344 C 11.433594 9.890625 11.417969 10.265625 11.296875 10.488281 C 11.195312 10.691406 10.972656 10.929688 10.804688 10.964844 C 10.648438 10.980469 10.445312 10.878906 10.328125 10.742188 C 10.15625 10.589844 10.019531 10.300781 9.96875 10.027344 C 9.882812 9.6875 9.847656 9.039062 9.96875 8.835938 C 10.035156 8.730469 10.171875 8.664062 10.257812 8.679688 C 10.328125 8.699219 10.445312 8.9375 10.445312 8.9375 " clip-rule="nonzero"/></clipPath><clipPath id="5d63b17add"><path d="M 17.101562 16.769531 L 19.695312 16.769531 L 19.695312 18.851562 L 17.101562 18.851562 Z M 17.101562 16.769531 " clip-rule="nonzero"/></clipPath><clipPath id="cf0a3d4ac5"><path d="M 17.636719 17.011719 C 17.875 18.238281 18.011719 18.289062 18.179688 18.339844 C 18.386719 18.410156 18.8125 18.476562 18.980469 18.375 C 19.117188 18.289062 19.152344 18.015625 19.203125 17.863281 C 19.238281 17.746094 19.289062 17.640625 19.253906 17.539062 C 19.1875 17.421875 18.84375 17.199219 18.761719 17.234375 C 18.707031 17.25 18.777344 17.402344 18.707031 17.472656 C 18.605469 17.625 18.164062 17.675781 17.976562 17.863281 C 17.789062 18.035156 17.722656 18.425781 17.566406 18.546875 C 17.480469 18.613281 17.378906 18.664062 17.292969 18.648438 C 17.226562 18.613281 17.125 18.496094 17.105469 18.359375 C 17.089844 18.152344 17.328125 17.589844 17.464844 17.488281 C 17.550781 17.4375 17.652344 17.457031 17.703125 17.488281 C 17.773438 17.523438 17.875 17.695312 17.855469 17.761719 C 17.824219 17.847656 17.550781 17.964844 17.464844 17.933594 C 17.398438 17.898438 17.328125 17.726562 17.347656 17.640625 C 17.363281 17.574219 17.449219 17.472656 17.515625 17.472656 C 17.617188 17.472656 17.824219 17.609375 17.855469 17.726562 C 17.90625 17.914062 17.722656 18.339844 17.601562 18.496094 C 17.535156 18.578125 17.429688 18.664062 17.363281 18.648438 C 17.277344 18.648438 17.125 18.496094 17.105469 18.359375 C 17.105469 18.152344 17.429688 17.660156 17.6875 17.457031 C 17.890625 17.269531 18.265625 17.132812 18.453125 17.132812 C 18.574219 17.148438 18.65625 17.183594 18.726562 17.269531 C 18.792969 17.351562 18.863281 17.539062 18.828125 17.660156 C 18.792969 17.777344 18.65625 17.949219 18.554688 17.949219 C 18.453125 17.949219 18.230469 17.695312 18.214844 17.539062 C 18.179688 17.335938 18.402344 16.894531 18.589844 16.808594 C 18.761719 16.722656 19.136719 16.839844 19.304688 16.976562 C 19.492188 17.113281 19.644531 17.351562 19.679688 17.589844 C 19.714844 17.882812 19.578125 18.375 19.425781 18.578125 C 19.324219 18.714844 19.1875 18.765625 19.015625 18.800781 C 18.761719 18.871094 18.265625 18.835938 17.992188 18.765625 C 17.804688 18.714844 17.667969 18.664062 17.550781 18.546875 C 17.414062 18.390625 17.292969 18.121094 17.242188 17.882812 C 17.160156 17.589844 17.105469 17.0625 17.191406 16.910156 C 17.242188 16.824219 17.363281 16.773438 17.429688 16.789062 C 17.5 16.808594 17.636719 17.011719 17.636719 17.011719 " clip-rule="nonzero"/></clipPath><clipPath id="3e3fe57fa8"><path d="M 16.542969 21.445312 L 20.371094 21.445312 L 20.371094 24.132812 L 16.542969 24.132812 Z M 16.542969 21.445312 " clip-rule="nonzero"/></clipPath><clipPath id="285553c625"><path d="M 18.179688 22.652344 C 17.824219 22.753906 17.789062 22.992188 17.839844 23.128906 C 17.90625 23.246094 18.042969 23.332031 18.230469 23.417969 C 18.539062 23.554688 19.324219 23.757812 19.59375 23.65625 C 19.75 23.589844 19.832031 23.453125 19.882812 23.28125 C 19.9375 23.078125 19.9375 22.703125 19.765625 22.5 C 19.5625 22.207031 18.914062 22.019531 18.503906 21.9375 C 18.164062 21.851562 17.753906 21.800781 17.480469 21.886719 C 17.277344 21.9375 17.003906 22.15625 17.023438 22.242188 C 17.039062 22.34375 17.5 22.3125 17.601562 22.414062 C 17.6875 22.5 17.738281 22.652344 17.703125 22.738281 C 17.636719 22.855469 17.226562 23.042969 17.074219 23.007812 C 16.988281 22.992188 16.902344 22.875 16.902344 22.789062 C 16.886719 22.71875 16.921875 22.601562 16.988281 22.566406 C 17.074219 22.53125 17.363281 22.632812 17.398438 22.71875 C 17.429688 22.789062 17.328125 22.941406 17.261719 22.992188 C 17.210938 23.027344 17.089844 23.027344 17.023438 22.992188 C 16.972656 22.957031 16.902344 22.855469 16.902344 22.789062 C 16.902344 22.703125 16.988281 22.53125 17.054688 22.53125 C 17.140625 22.515625 17.414062 22.6875 17.398438 22.769531 C 17.398438 22.855469 17.105469 23.007812 17.023438 22.992188 C 16.953125 22.957031 16.886719 22.820312 16.902344 22.71875 C 16.902344 22.617188 17.023438 22.414062 17.140625 22.363281 C 17.277344 22.3125 17.617188 22.394531 17.6875 22.5 C 17.738281 22.582031 17.703125 22.769531 17.636719 22.820312 C 17.550781 22.90625 17.363281 22.890625 17.210938 22.890625 C 17.054688 22.875 16.851562 22.839844 16.734375 22.753906 C 16.628906 22.652344 16.546875 22.480469 16.546875 22.34375 C 16.546875 22.175781 16.664062 21.9375 16.816406 21.800781 C 16.972656 21.644531 17.191406 21.542969 17.449219 21.492188 C 17.773438 21.425781 18.230469 21.441406 18.640625 21.542969 C 19.117188 21.679688 19.851562 22.003906 20.125 22.292969 C 20.292969 22.5 20.34375 22.71875 20.363281 22.925781 C 20.378906 23.113281 20.363281 23.316406 20.277344 23.488281 C 20.15625 23.707031 19.882812 23.980469 19.613281 24.066406 C 19.304688 24.183594 18.828125 24.101562 18.46875 23.996094 C 18.164062 23.914062 17.789062 23.742188 17.601562 23.554688 C 17.480469 23.433594 17.414062 23.316406 17.378906 23.164062 C 17.328125 22.976562 17.328125 22.652344 17.449219 22.5 C 17.585938 22.3125 18.027344 22.140625 18.179688 22.175781 C 18.28125 22.207031 18.386719 22.34375 18.386719 22.414062 C 18.386719 22.5 18.179688 22.652344 18.179688 22.652344 " clip-rule="nonzero"/></clipPath><clipPath id="ef091c4583"><path d="M 23.847656 21.863281 L 25.835938 21.863281 L 25.835938 22.820312 L 23.847656 22.820312 Z M 23.847656 21.863281 " clip-rule="nonzero"/></clipPath><clipPath id="da6122428b"><path d="M 24.808594 22.3125 C 25.523438 22.277344 25.523438 22.445312 25.457031 22.5 C 25.320312 22.601562 24.535156 22.515625 24.332031 22.394531 C 24.210938 22.328125 24.144531 22.191406 24.144531 22.105469 C 24.160156 22.019531 24.246094 21.917969 24.347656 21.902344 C 24.535156 21.867188 25.097656 22.089844 25.21875 22.261719 C 25.285156 22.34375 25.320312 22.515625 25.25 22.601562 C 25.132812 22.738281 24.144531 22.667969 23.957031 22.53125 C 23.871094 22.464844 23.835938 22.34375 23.855469 22.261719 C 23.886719 22.175781 24.007812 22.105469 24.144531 22.074219 C 24.382812 22.003906 25.113281 22.074219 25.300781 22.226562 C 25.40625 22.3125 25.457031 22.5 25.421875 22.582031 C 25.386719 22.652344 25.21875 22.71875 25.148438 22.71875 C 25.0625 22.703125 24.960938 22.632812 24.960938 22.566406 C 24.945312 22.464844 25.113281 22.207031 25.199219 22.207031 C 25.269531 22.191406 25.457031 22.394531 25.457031 22.480469 C 25.457031 22.550781 25.371094 22.667969 25.25 22.71875 C 25.011719 22.804688 24.144531 22.703125 23.957031 22.53125 C 23.871094 22.445312 23.835938 22.277344 23.871094 22.207031 C 23.90625 22.125 24.023438 22.089844 24.144531 22.074219 C 24.367188 22.039062 24.980469 22.105469 25.167969 22.226562 C 25.25 22.277344 25.300781 22.34375 25.300781 22.414062 C 25.300781 22.5 25.25 22.632812 25.167969 22.6875 C 25.046875 22.738281 24.757812 22.6875 24.585938 22.601562 C 24.417969 22.53125 24.195312 22.363281 24.160156 22.226562 C 24.144531 22.125 24.195312 21.96875 24.296875 21.917969 C 24.417969 21.832031 24.722656 21.867188 24.945312 21.902344 C 25.199219 21.9375 25.59375 22.003906 25.726562 22.140625 C 25.8125 22.242188 25.847656 22.414062 25.8125 22.5 C 25.78125 22.601562 25.675781 22.667969 25.542969 22.71875 C 25.355469 22.789062 24.859375 22.875 24.707031 22.769531 C 24.621094 22.71875 24.585938 22.582031 24.605469 22.515625 C 24.621094 22.429688 24.808594 22.3125 24.808594 22.3125 " clip-rule="nonzero"/></clipPath><clipPath id="6c044bede5"><path d="M 24.6875 18.484375 L 25.910156 18.484375 L 25.910156 19.695312 L 24.6875 19.695312 Z M 24.6875 18.484375 " clip-rule="nonzero"/></clipPath><clipPath id="4ce769cc6e"><path d="M 25.183594 18.734375 C 25.371094 19.058594 25.355469 18.75 25.371094 18.75 C 25.40625 18.734375 25.507812 18.871094 25.523438 18.972656 C 25.523438 19.125 25.355469 19.515625 25.234375 19.566406 C 25.148438 19.601562 24.996094 19.550781 24.945312 19.484375 C 24.894531 19.429688 24.859375 19.261719 24.894531 19.210938 C 24.960938 19.125 25.25 19.074219 25.335938 19.125 C 25.40625 19.160156 25.4375 19.296875 25.40625 19.363281 C 25.386719 19.449219 25.25 19.585938 25.167969 19.585938 C 25.082031 19.585938 24.925781 19.484375 24.894531 19.398438 C 24.859375 19.328125 24.894531 19.210938 24.925781 19.160156 C 24.980469 19.089844 25.082031 19.039062 25.148438 19.039062 C 25.234375 19.058594 25.386719 19.175781 25.40625 19.242188 C 25.421875 19.328125 25.371094 19.5 25.285156 19.535156 C 25.21875 19.585938 24.996094 19.566406 24.945312 19.484375 C 24.84375 19.363281 24.894531 18.9375 25.011719 18.765625 C 25.132812 18.597656 25.542969 18.460938 25.695312 18.496094 C 25.796875 18.527344 25.882812 18.648438 25.898438 18.765625 C 25.914062 18.972656 25.695312 19.535156 25.523438 19.652344 C 25.40625 19.722656 25.25 19.6875 25.148438 19.636719 C 24.980469 19.535156 24.707031 19.125 24.6875 18.9375 C 24.6875 18.816406 24.773438 18.648438 24.859375 18.628906 C 24.925781 18.597656 25.183594 18.734375 25.183594 18.734375 " clip-rule="nonzero"/></clipPath><clipPath id="c296402e70"><path d="M 9.835938 18.132812 L 11.890625 18.132812 L 11.890625 19.65625 L 9.835938 19.65625 Z M 9.835938 18.132812 " clip-rule="nonzero"/></clipPath><clipPath id="38dfb8fd72"><path d="M 10.273438 18.816406 C 11.007812 18.9375 11.195312 18.902344 11.28125 18.816406 C 11.367188 18.75 11.367188 18.527344 11.433594 18.527344 C 11.484375 18.511719 11.65625 18.664062 11.636719 18.699219 C 11.621094 18.765625 11.074219 18.683594 10.835938 18.75 C 10.632812 18.800781 10.34375 19.058594 10.308594 19.039062 C 10.292969 19.023438 10.410156 18.785156 10.480469 18.785156 C 10.582031 18.785156 10.71875 19.242188 10.855469 19.261719 C 10.972656 19.277344 11.210938 19.058594 11.210938 19.058594 C 11.230469 19.074219 10.957031 19.328125 10.855469 19.3125 C 10.785156 19.3125 10.683594 19.160156 10.683594 19.074219 C 10.683594 18.988281 10.734375 18.851562 10.804688 18.835938 C 10.886719 18.800781 11.179688 18.921875 11.210938 19.023438 C 11.246094 19.089844 11.144531 19.261719 11.074219 19.3125 C 11.007812 19.347656 10.886719 19.328125 10.820312 19.296875 C 10.753906 19.261719 10.683594 19.160156 10.683594 19.089844 C 10.683594 19.003906 10.785156 18.816406 10.855469 18.816406 C 10.957031 18.800781 11.210938 18.988281 11.210938 19.074219 C 11.230469 19.160156 11.007812 19.328125 10.921875 19.328125 C 10.835938 19.328125 10.753906 19.058594 10.683594 19.074219 C 10.597656 19.089844 10.480469 19.652344 10.480469 19.652344 C 10.460938 19.652344 10.617188 19.363281 10.566406 19.277344 C 10.480469 19.175781 10.035156 19.277344 9.933594 19.175781 C 9.867188 19.125 9.832031 19.003906 9.847656 18.921875 C 9.867188 18.800781 9.953125 18.664062 10.085938 18.5625 C 10.308594 18.390625 10.871094 18.203125 11.179688 18.171875 C 11.382812 18.136719 11.621094 18.121094 11.742188 18.222656 C 11.859375 18.324219 11.910156 18.628906 11.875 18.800781 C 11.84375 18.972656 11.65625 19.175781 11.484375 19.277344 C 11.296875 19.398438 11.023438 19.429688 10.785156 19.429688 C 10.566406 19.449219 10.273438 19.414062 10.140625 19.3125 C 10.035156 19.226562 9.933594 19.058594 9.96875 18.972656 C 9.984375 18.886719 10.273438 18.816406 10.273438 18.816406 " clip-rule="nonzero"/></clipPath><clipPath id="f6d4f7f348"><path d="M 9.65625 21.84375 L 11.96875 21.84375 L 11.96875 22.847656 L 9.65625 22.847656 Z M 9.65625 21.84375 " clip-rule="nonzero"/></clipPath><clipPath id="246f81ef69"><path d="M 10.054688 22.261719 C 11.84375 22.292969 11.945312 22.378906 11.960938 22.464844 C 11.960938 22.53125 11.859375 22.6875 11.722656 22.71875 C 11.398438 22.820312 10.15625 22.550781 9.867188 22.34375 C 9.746094 22.277344 9.660156 22.15625 9.660156 22.074219 C 9.679688 21.988281 9.816406 21.867188 9.882812 21.867188 C 9.96875 21.886719 10.140625 22.105469 10.121094 22.191406 C 10.105469 22.261719 9.898438 22.363281 9.816406 22.34375 C 9.746094 22.3125 9.660156 22.175781 9.660156 22.089844 C 9.660156 22.019531 9.746094 21.917969 9.847656 21.886719 C 10.085938 21.78125 10.855469 21.953125 11.230469 22.074219 C 11.519531 22.15625 11.929688 22.328125 11.960938 22.464844 C 11.960938 22.550781 11.84375 22.6875 11.6875 22.753906 C 11.382812 22.875 10.34375 22.875 10.054688 22.753906 C 9.917969 22.703125 9.816406 22.617188 9.796875 22.550781 C 9.796875 22.464844 10.054688 22.261719 10.054688 22.261719 " clip-rule="nonzero"/></clipPath><clipPath id="b66d6be8ee"><path d="M 3.867188 21.910156 L 6.230469 21.910156 L 6.230469 22.902344 L 3.867188 22.902344 Z M 3.867188 21.910156 " clip-rule="nonzero"/></clipPath><clipPath id="a0ed837c09"><path d="M 4.398438 22.328125 C 6.117188 22.378906 6.21875 22.464844 6.21875 22.53125 C 6.238281 22.617188 6.136719 22.738281 6 22.789062 C 5.691406 22.890625 4.363281 22.550781 4.074219 22.378906 C 3.953125 22.328125 3.886719 22.261719 3.867188 22.191406 C 3.867188 22.125 3.902344 22.039062 3.953125 21.988281 C 4.003906 21.953125 4.109375 21.917969 4.160156 21.953125 C 4.226562 21.96875 4.328125 22.089844 4.328125 22.15625 C 4.328125 22.242188 4.226562 22.363281 4.160156 22.378906 C 4.109375 22.394531 4.003906 22.378906 3.953125 22.328125 C 3.902344 22.292969 3.867188 22.207031 3.867188 22.140625 C 3.886719 22.074219 3.953125 21.96875 4.054688 21.9375 C 4.3125 21.851562 5.164062 22.019531 5.554688 22.15625 C 5.828125 22.242188 6.167969 22.34375 6.21875 22.480469 C 6.238281 22.566406 6.167969 22.71875 6.066406 22.789062 C 5.8125 22.941406 4.6875 22.925781 4.398438 22.804688 C 4.261719 22.738281 4.160156 22.617188 4.175781 22.53125 C 4.175781 22.464844 4.398438 22.328125 4.398438 22.328125 " clip-rule="nonzero"/></clipPath><clipPath id="01553192d0"><path d="M 4.285156 18.347656 L 6.085938 18.347656 L 6.085938 19.59375 L 4.285156 19.59375 Z M 4.285156 18.347656 " clip-rule="nonzero"/></clipPath><clipPath id="0620cb6d2f"><path d="M 4.773438 18.597656 C 5.0625 18.953125 5.589844 19.074219 5.625 19.003906 C 5.65625 18.972656 5.25 18.628906 5.25 18.628906 C 5.230469 18.628906 5.402344 18.765625 5.417969 18.871094 C 5.46875 19.023438 5.453125 19.378906 5.367188 19.5 C 5.316406 19.566406 5.199219 19.601562 5.128906 19.585938 C 5.042969 19.585938 4.910156 19.464844 4.890625 19.378906 C 4.855469 19.3125 4.890625 19.191406 4.941406 19.140625 C 4.992188 19.074219 5.179688 19.023438 5.265625 19.058594 C 5.335938 19.089844 5.417969 19.191406 5.417969 19.261719 C 5.417969 19.363281 5.179688 19.601562 5.097656 19.585938 C 5.011719 19.566406 4.875 19.261719 4.910156 19.175781 C 4.941406 19.089844 5.148438 19.023438 5.230469 19.058594 C 5.300781 19.058594 5.402344 19.160156 5.417969 19.226562 C 5.4375 19.3125 5.386719 19.5 5.300781 19.550781 C 5.230469 19.601562 5.027344 19.585938 4.941406 19.5 C 4.839844 19.398438 4.773438 18.9375 4.855469 18.75 C 4.925781 18.578125 5.199219 18.425781 5.351562 18.410156 C 5.453125 18.410156 5.605469 18.476562 5.640625 18.5625 C 5.675781 18.683594 5.523438 19.023438 5.386719 19.089844 C 5.265625 19.160156 5.027344 19.140625 4.925781 19.058594 C 4.839844 18.988281 4.789062 18.816406 4.789062 18.714844 C 4.804688 18.613281 4.839844 18.527344 4.925781 18.460938 C 5.0625 18.375 5.386719 18.324219 5.574219 18.375 C 5.761719 18.425781 6.015625 18.597656 6.066406 18.765625 C 6.117188 18.9375 6 19.296875 5.828125 19.414062 C 5.640625 19.550781 5.148438 19.535156 4.890625 19.414062 C 4.636719 19.296875 4.296875 18.902344 4.296875 18.714844 C 4.296875 18.613281 4.429688 18.476562 4.515625 18.460938 C 4.585938 18.441406 4.773438 18.597656 4.773438 18.597656 " clip-rule="nonzero"/></clipPath><clipPath id="d287fc3a82"><path d="M 2.449219 4.269531 L 27.851562 4.269531 L 27.851562 24.589844 L 2.449219 24.589844 Z M 2.449219 4.269531 " clip-rule="nonzero"/></clipPath></defs><g clip-path="url(#c198f741b6)"><g clip-path="url(#a1c132a9ce)"><path fill="#e7191f" d="M 6.902344 7.179688 L 14.597656 7.179688 L 14.597656 12.070312 L 6.902344 12.070312 Z M 6.902344 7.179688 " fill-opacity="1" fill-rule="nonzero"/></g></g><g clip-path="url(#5d63b17add)"><g clip-path="url(#cf0a3d4ac5)"><path fill="#e7191f" d="M 16.425781 16.109375 L 20.359375 16.109375 L 20.359375 19.5 L 16.425781 19.5 Z M 16.425781 16.109375 " fill-opacity="1" fill-rule="nonzero"/></g></g><g clip-path="url(#3e3fe57fa8)"><g clip-path="url(#285553c625)"><path fill="#e7191f" d="M 15.863281 20.8125 L 21.066406 20.8125 L 21.066406 24.765625 L 15.863281 24.765625 Z M 15.863281 20.8125 " fill-opacity="1" fill-rule="nonzero"/></g></g><g clip-path="url(#ef091c4583)"><g clip-path="url(#da6122428b)"><path fill="#e7191f" d="M 23.171875 21.21875 L 26.492188 21.21875 L 26.492188 23.46875 L 23.171875 23.46875 Z M 23.171875 21.21875 " fill-opacity="1" fill-rule="nonzero"/></g></g><g clip-path="url(#6c044bede5)"><g clip-path="url(#4ce769cc6e)"><path fill="#e7191f" d="M 24.007812 17.8125 L 26.578125 17.8125 L 26.578125 20.335938 L 24.007812 20.335938 Z M 24.007812 17.8125 " fill-opacity="1" fill-rule="nonzero"/></g></g><g clip-path="url(#c296402e70)"><g clip-path="url(#38dfb8fd72)"><path fill="#e7191f" d="M 9.167969 17.488281 L 12.578125 17.488281 L 12.578125 20.335938 L 9.167969 20.335938 Z M 9.167969 17.488281 " fill-opacity="1" fill-rule="nonzero"/></g></g><g clip-path="url(#f6d4f7f348)"><g clip-path="url(#246f81ef69)"><path fill="#e7191f" d="M 8.980469 21.1875 L 12.644531 21.1875 L 12.644531 23.433594 L 8.980469 23.433594 Z M 8.980469 21.1875 " fill-opacity="1" fill-rule="nonzero"/></g></g><g clip-path="url(#b66d6be8ee)"><g clip-path="url(#a0ed837c09)"><path fill="#e7191f" d="M 3.1875 21.253906 L 6.902344 21.253906 L 6.902344 23.488281 L 3.1875 23.488281 Z M 3.1875 21.253906 " fill-opacity="1" fill-rule="nonzero"/></g></g><g clip-path="url(#01553192d0)"><g clip-path="url(#0620cb6d2f)"><path fill="#e7191f" d="M 3.613281 17.695312 L 6.769531 17.695312 L 6.769531 20.265625 L 3.613281 20.265625 Z M 3.613281 17.695312 " fill-opacity="1" fill-rule="nonzero"/></g></g><g clip-path="url(#d287fc3a82)"><path fill="#5e17eb" d="M 10.3125 4.28125 C 7.351562 4.28125 4.953125 6.679688 4.953125 9.644531 C 4.953125 12.605469 7.351562 15.003906 10.3125 15.003906 C 11.605469 15.003906 12.792969 14.546875 13.71875 13.785156 L 15.6875 14.507812 L 14.761719 12.640625 C 15.339844 11.785156 15.675781 10.753906 15.675781 9.644531 C 15.675781 6.679688 13.273438 4.277344 10.3125 4.277344 Z M 17.894531 15.238281 C 16.3125 15.238281 15.023438 16.433594 15.023438 17.910156 C 15.023438 19.386719 16.3125 20.582031 17.894531 20.582031 C 19.480469 20.582031 20.765625 19.386719 20.765625 17.910156 C 20.765625 16.433594 19.480469 15.238281 17.894531 15.238281 Z M 4.898438 17.480469 C 3.90625 17.480469 3.101562 18.226562 3.101562 19.152344 C 3.101562 20.074219 3.90625 20.820312 4.898438 20.820312 C 5.890625 20.820312 6.695312 20.074219 6.695312 19.152344 C 6.695312 18.226562 5.890625 17.480469 4.898438 17.480469 Z M 10.675781 17.480469 C 9.683594 17.480469 8.878906 18.226562 8.878906 19.152344 C 8.878906 20.074219 9.683594 20.820312 10.675781 20.820312 C 11.667969 20.820312 12.46875 20.074219 12.46875 19.152344 C 12.46875 18.226562 11.667969 17.480469 10.675781 17.480469 Z M 25.117188 17.480469 C 24.125 17.480469 23.320312 18.226562 23.320312 19.152344 C 23.320312 20.074219 24.125 20.820312 25.117188 20.820312 C 26.109375 20.820312 26.910156 20.074219 26.910156 19.152344 C 26.910156 18.226562 26.109375 17.480469 25.117188 17.480469 Z M 16.015625 20.945312 C 14.917969 20.945312 14.035156 21.828125 14.035156 22.925781 L 14.035156 24.703125 L 21.753906 24.703125 L 21.753906 22.925781 C 21.753906 21.828125 20.871094 20.945312 19.777344 20.945312 Z M 3.722656 21.300781 C 3.035156 21.300781 2.480469 21.851562 2.480469 22.539062 L 2.480469 23.652344 L 7.3125 23.652344 L 7.3125 22.539062 C 7.3125 21.851562 6.761719 21.300781 6.074219 21.300781 Z M 9.5 21.300781 C 8.8125 21.300781 8.261719 21.851562 8.261719 22.539062 L 8.261719 23.652344 L 13.089844 23.652344 L 13.089844 22.539062 C 13.089844 21.851562 12.539062 21.300781 11.851562 21.300781 Z M 23.941406 21.300781 C 23.253906 21.300781 22.699219 21.851562 22.699219 22.539062 L 22.699219 23.652344 L 27.53125 23.652344 L 27.53125 22.539062 C 27.53125 21.851562 26.980469 21.300781 26.292969 21.300781 Z M 23.941406 21.300781 " fill-opacity="1" fill-rule="nonzero"/></g></svg>