<svg xmlns="http://www.w3.org/2000/svg" xmlns:xlink="http://www.w3.org/1999/xlink" width="250" zoomAndPan="magnify" viewBox="0 0 187.5 89.999999" height="120" preserveAspectRatio="xMidYMid meet" version="1.0"><defs><clipPath id="617a3a5fcd"><path d="M 22.394531 15.84375 L 50.488281 15.84375 L 50.488281 31.441406 L 22.394531 31.441406 Z M 22.394531 15.84375 " clip-rule="nonzero"/></clipPath><clipPath id="e06c9c778a"><path d="M 35.105469 20.613281 C 35.105469 26.226562 36 27.644531 36.375 27.570312 C 36.75 27.496094 37.125 26 37.199219 25.101562 C 37.273438 24.207031 37.347656 23.007812 36.824219 22.261719 C 36.300781 21.363281 34.878906 20.691406 33.90625 20.316406 C 32.933594 19.941406 31.589844 19.644531 30.914062 19.867188 C 30.464844 19.941406 30.015625 20.539062 29.941406 20.464844 C 29.792969 20.316406 32.113281 15.976562 32.933594 15.902344 C 33.382812 15.828125 34.054688 16.652344 34.132812 17.25 C 34.28125 18.148438 32.335938 20.089844 32.1875 21.136719 C 32.035156 21.738281 32.035156 22.261719 32.261719 22.710938 C 32.484375 23.160156 33.007812 23.308594 33.53125 23.605469 C 34.132812 23.980469 34.804688 24.429688 35.851562 24.730469 C 37.722656 25.253906 41.761719 25.703125 44.003906 25.550781 C 45.726562 25.476562 48.117188 25.027344 48.417969 24.429688 C 48.566406 24.054688 48.042969 23.457031 47.519531 23.082031 C 46.472656 22.484375 43.03125 22.035156 41.460938 22.558594 C 40.265625 22.933594 39.144531 24.128906 38.621094 25.253906 C 38.09375 26.449219 38.394531 29.589844 38.394531 29.589844 C 38.46875 29.589844 39.21875 25.777344 38.769531 24.128906 C 38.320312 22.558594 37.125 20.839844 35.777344 19.941406 C 34.28125 18.894531 31.738281 18.445312 29.941406 18.671875 C 28.222656 18.820312 26.128906 20.015625 25.304688 20.765625 C 24.855469 21.136719 24.480469 21.585938 24.480469 21.960938 C 24.480469 22.335938 24.78125 22.710938 25.230469 22.859375 C 25.976562 23.308594 27.996094 23.308594 29.34375 23.082031 C 30.765625 22.859375 32.636719 21.363281 33.53125 21.585938 C 33.980469 21.664062 34.503906 22.1875 34.503906 22.484375 C 34.578125 22.785156 33.832031 23.457031 33.53125 23.457031 C 33.234375 23.457031 32.558594 22.410156 32.710938 22.109375 C 32.859375 21.886719 34.054688 21.585938 34.28125 21.8125 C 34.503906 22.035156 34.355469 22.933594 33.980469 23.382812 C 33.308594 24.128906 31.0625 24.730469 29.34375 24.953125 C 27.398438 25.179688 23.957031 25.101562 22.984375 24.28125 C 22.460938 23.757812 22.386719 22.859375 22.535156 22.109375 C 22.6875 21.214844 23.507812 20.167969 24.257812 19.417969 C 24.855469 18.746094 25.605469 18.222656 26.5 17.773438 C 27.546875 17.324219 28.671875 16.949219 30.09375 16.949219 C 31.960938 16.949219 35.328125 17.699219 36.972656 18.59375 C 38.09375 19.269531 38.769531 19.941406 39.441406 20.988281 C 40.265625 22.558594 40.863281 25.476562 40.9375 27.199219 C 41.011719 28.394531 40.863281 29.515625 40.488281 30.265625 C 40.265625 30.789062 39.890625 31.238281 39.367188 31.3125 C 38.695312 31.535156 37.421875 31.238281 36.898438 30.714844 C 36.300781 30.191406 36.152344 29.066406 36.152344 28.09375 C 36.152344 26.898438 36.523438 25.328125 37.273438 24.128906 C 38.09375 22.859375 39.515625 21.289062 41.164062 20.765625 C 43.105469 20.167969 46.996094 20.839844 48.492188 21.4375 C 49.316406 21.738281 49.914062 22.1875 50.214844 22.785156 C 50.511719 23.308594 50.511719 24.128906 50.289062 24.730469 C 50.136719 25.253906 49.765625 25.625 49.167969 26 C 48.117188 26.675781 45.949219 27.273438 43.929688 27.421875 C 41.386719 27.570312 37.125 27.046875 35.027344 26.449219 C 33.832031 26.148438 33.007812 25.703125 32.261719 25.179688 C 31.511719 24.730469 30.765625 24.128906 30.316406 23.53125 C 30.015625 23.007812 29.792969 22.484375 29.867188 21.738281 C 30.015625 20.316406 31.738281 16.203125 32.636719 15.976562 C 33.160156 15.828125 33.980469 16.425781 34.207031 16.949219 C 34.429688 17.773438 33.53125 19.941406 32.710938 20.691406 C 32.035156 21.363281 30.691406 21.8125 29.867188 21.738281 C 29.269531 21.664062 28.445312 21.214844 28.222656 20.765625 C 28.074219 20.390625 28.074219 19.867188 28.296875 19.492188 C 28.671875 18.894531 29.941406 18.148438 30.988281 17.921875 C 32.035156 17.773438 33.457031 18.070312 34.65625 18.59375 C 36.074219 19.195312 37.945312 20.464844 38.695312 21.511719 C 39.144531 22.1875 39.292969 22.859375 39.367188 23.757812 C 39.441406 24.804688 39.367188 26.449219 38.84375 27.421875 C 38.394531 28.320312 37.421875 29.367188 36.675781 29.515625 C 36 29.589844 35.105469 29.140625 34.578125 28.542969 C 33.832031 27.871094 33.234375 26.597656 33.007812 25.402344 C 32.636719 23.90625 32.484375 21.0625 33.007812 20.167969 C 33.308594 19.71875 33.90625 19.417969 34.28125 19.492188 C 34.578125 19.566406 35.105469 20.613281 35.105469 20.613281 " clip-rule="nonzero"/></clipPath><clipPath id="40d521d608"><path d="M 64.324219 55.011719 L 75.71875 55.011719 L 75.71875 64.140625 L 64.324219 64.140625 Z M 64.324219 55.011719 " clip-rule="nonzero"/></clipPath><clipPath id="5a2e56c369"><path d="M 66.667969 56.070312 C 67.714844 61.457031 68.316406 61.679688 69.0625 61.90625 C 69.960938 62.203125 71.832031 62.503906 72.578125 62.054688 C 73.175781 61.679688 73.328125 60.484375 73.550781 59.808594 C 73.699219 59.285156 73.925781 58.839844 73.777344 58.390625 C 73.476562 57.867188 71.980469 56.894531 71.605469 57.042969 C 71.382812 57.117188 71.679688 57.789062 71.382812 58.089844 C 70.933594 58.761719 68.988281 58.988281 68.164062 59.808594 C 67.34375 60.558594 67.042969 62.277344 66.371094 62.800781 C 65.996094 63.101562 65.546875 63.324219 65.171875 63.25 C 64.875 63.101562 64.425781 62.578125 64.351562 61.980469 C 64.277344 61.082031 65.324219 58.613281 65.921875 58.164062 C 66.296875 57.941406 66.746094 58.015625 66.96875 58.164062 C 67.269531 58.316406 67.714844 59.0625 67.640625 59.363281 C 67.492188 59.734375 66.296875 60.257812 65.921875 60.109375 C 65.621094 59.960938 65.324219 59.210938 65.398438 58.839844 C 65.472656 58.539062 65.847656 58.089844 66.144531 58.089844 C 66.59375 58.089844 67.492188 58.6875 67.640625 59.210938 C 67.867188 60.035156 67.042969 61.90625 66.519531 62.578125 C 66.21875 62.953125 65.773438 63.324219 65.472656 63.25 C 65.097656 63.25 64.425781 62.578125 64.351562 61.980469 C 64.351562 61.082031 65.773438 58.914062 66.894531 58.015625 C 67.792969 57.191406 69.4375 56.59375 70.261719 56.59375 C 70.785156 56.667969 71.15625 56.820312 71.457031 57.191406 C 71.753906 57.566406 72.054688 58.390625 71.90625 58.914062 C 71.753906 59.4375 71.15625 60.183594 70.707031 60.183594 C 70.261719 60.183594 69.289062 59.0625 69.210938 58.390625 C 69.0625 57.492188 70.035156 55.546875 70.859375 55.171875 C 71.605469 54.800781 73.25 55.324219 74 55.921875 C 74.824219 56.519531 75.496094 57.566406 75.644531 58.613281 C 75.796875 59.886719 75.195312 62.054688 74.523438 62.953125 C 74.074219 63.550781 73.476562 63.773438 72.726562 63.925781 C 71.605469 64.222656 69.4375 64.074219 68.238281 63.773438 C 67.417969 63.550781 66.820312 63.324219 66.296875 62.800781 C 65.695312 62.128906 65.171875 60.933594 64.949219 59.886719 C 64.574219 58.613281 64.351562 56.292969 64.722656 55.621094 C 64.949219 55.246094 65.472656 55.023438 65.773438 55.097656 C 66.070312 55.171875 66.667969 56.070312 66.667969 56.070312 " clip-rule="nonzero"/></clipPath><clipPath id="c8bba27114"><path d="M 61.871094 75.53125 L 78.683594 75.53125 L 78.683594 87.324219 L 61.871094 87.324219 Z M 61.871094 75.53125 " clip-rule="nonzero"/></clipPath><clipPath id="a5577e88f5"><path d="M 69.0625 80.828125 C 67.492188 81.277344 67.34375 82.324219 67.566406 82.925781 C 67.867188 83.449219 68.464844 83.820312 69.289062 84.195312 C 70.632812 84.792969 74.074219 85.691406 75.269531 85.242188 C 75.945312 84.945312 76.320312 84.34375 76.542969 83.597656 C 76.765625 82.699219 76.765625 81.054688 76.019531 80.15625 C 75.121094 78.882812 72.28125 78.0625 70.484375 77.6875 C 68.988281 77.3125 67.191406 77.089844 65.996094 77.464844 C 65.097656 77.6875 63.902344 78.660156 63.976562 79.035156 C 64.050781 79.484375 66.070312 79.332031 66.519531 79.78125 C 66.894531 80.15625 67.117188 80.828125 66.96875 81.203125 C 66.667969 81.726562 64.875 82.550781 64.199219 82.398438 C 63.828125 82.324219 63.453125 81.800781 63.453125 81.429688 C 63.378906 81.128906 63.527344 80.605469 63.828125 80.457031 C 64.199219 80.304688 65.472656 80.753906 65.621094 81.128906 C 65.773438 81.429688 65.324219 82.101562 65.023438 82.324219 C 64.800781 82.476562 64.277344 82.476562 63.976562 82.324219 C 63.753906 82.175781 63.453125 81.726562 63.453125 81.429688 C 63.453125 81.054688 63.828125 80.304688 64.125 80.304688 C 64.5 80.230469 65.695312 80.980469 65.621094 81.351562 C 65.621094 81.726562 64.351562 82.398438 63.976562 82.324219 C 63.675781 82.175781 63.378906 81.578125 63.453125 81.128906 C 63.453125 80.679688 63.976562 79.78125 64.5 79.558594 C 65.097656 79.332031 66.59375 79.707031 66.894531 80.15625 C 67.117188 80.53125 66.96875 81.351562 66.667969 81.578125 C 66.296875 81.953125 65.472656 81.875 64.800781 81.875 C 64.125 81.800781 63.230469 81.652344 62.703125 81.277344 C 62.257812 80.828125 61.882812 80.082031 61.882812 79.484375 C 61.882812 78.734375 62.40625 77.6875 63.078125 77.089844 C 63.753906 76.417969 64.722656 75.96875 65.847656 75.742188 C 67.269531 75.445312 69.289062 75.519531 71.082031 75.96875 C 73.175781 76.566406 76.394531 77.988281 77.589844 79.257812 C 78.339844 80.15625 78.5625 81.128906 78.636719 82.027344 C 78.710938 82.847656 78.636719 83.746094 78.261719 84.496094 C 77.738281 85.46875 76.542969 86.664062 75.347656 87.039062 C 74 87.5625 71.90625 87.1875 70.335938 86.738281 C 68.988281 86.363281 67.34375 85.617188 66.519531 84.792969 C 65.996094 84.269531 65.695312 83.746094 65.546875 83.074219 C 65.324219 82.25 65.324219 80.828125 65.847656 80.15625 C 66.445312 79.332031 68.390625 78.585938 69.0625 78.734375 C 69.511719 78.882812 69.960938 79.484375 69.960938 79.78125 C 69.960938 80.15625 69.0625 80.828125 69.0625 80.828125 " clip-rule="nonzero"/></clipPath><clipPath id="e913f91d73"><path d="M 93.949219 77.363281 L 102.664062 77.363281 L 102.664062 81.566406 L 93.949219 81.566406 Z M 93.949219 77.363281 " clip-rule="nonzero"/></clipPath><clipPath id="60eef9cf6d"><path d="M 98.160156 79.332031 C 101.300781 79.183594 101.300781 79.933594 101.003906 80.15625 C 100.40625 80.605469 96.964844 80.230469 96.066406 79.707031 C 95.542969 79.410156 95.242188 78.808594 95.242188 78.4375 C 95.316406 78.0625 95.691406 77.613281 96.140625 77.539062 C 96.964844 77.386719 99.433594 78.359375 99.957031 79.109375 C 100.253906 79.484375 100.40625 80.230469 100.105469 80.605469 C 99.582031 81.203125 95.242188 80.902344 94.421875 80.304688 C 94.046875 80.007812 93.898438 79.484375 93.972656 79.109375 C 94.121094 78.734375 94.644531 78.4375 95.242188 78.285156 C 96.289062 77.988281 99.507812 78.285156 100.328125 78.960938 C 100.777344 79.332031 101.003906 80.15625 100.851562 80.53125 C 100.703125 80.828125 99.957031 81.128906 99.65625 81.128906 C 99.28125 81.054688 98.832031 80.753906 98.832031 80.457031 C 98.757812 80.007812 99.507812 78.882812 99.878906 78.882812 C 100.179688 78.808594 101.003906 79.707031 101.003906 80.082031 C 101.003906 80.378906 100.628906 80.902344 100.105469 81.128906 C 99.058594 81.503906 95.242188 81.054688 94.421875 80.304688 C 94.046875 79.933594 93.898438 79.183594 94.046875 78.882812 C 94.195312 78.511719 94.71875 78.359375 95.242188 78.285156 C 96.214844 78.136719 98.910156 78.4375 99.730469 78.960938 C 100.105469 79.183594 100.328125 79.484375 100.328125 79.78125 C 100.328125 80.15625 100.105469 80.753906 99.730469 80.980469 C 99.207031 81.203125 97.9375 80.980469 97.1875 80.605469 C 96.441406 80.304688 95.46875 79.558594 95.316406 78.960938 C 95.242188 78.511719 95.46875 77.835938 95.917969 77.613281 C 96.441406 77.238281 97.785156 77.386719 98.757812 77.539062 C 99.878906 77.6875 101.601562 77.988281 102.199219 78.585938 C 102.574219 79.035156 102.722656 79.78125 102.574219 80.15625 C 102.425781 80.605469 101.976562 80.902344 101.375 81.128906 C 100.554688 81.429688 98.386719 81.800781 97.710938 81.351562 C 97.335938 81.128906 97.1875 80.53125 97.261719 80.230469 C 97.335938 79.855469 98.160156 79.332031 98.160156 79.332031 " clip-rule="nonzero"/></clipPath><clipPath id="337050f2fb"><path d="M 97.628906 62.527344 L 102.992188 62.527344 L 102.992188 67.847656 L 97.628906 67.847656 Z M 97.628906 62.527344 " clip-rule="nonzero"/></clipPath><clipPath id="822db300a3"><path d="M 99.804688 63.625 C 100.628906 65.046875 100.554688 63.699219 100.628906 63.699219 C 100.777344 63.625 101.226562 64.222656 101.300781 64.671875 C 101.300781 65.347656 100.554688 67.066406 100.03125 67.289062 C 99.65625 67.441406 98.984375 67.214844 98.757812 66.917969 C 98.535156 66.691406 98.386719 65.945312 98.535156 65.71875 C 98.832031 65.347656 100.105469 65.121094 100.480469 65.347656 C 100.777344 65.496094 100.929688 66.09375 100.777344 66.394531 C 100.703125 66.765625 100.105469 67.367188 99.730469 67.367188 C 99.355469 67.367188 98.683594 66.917969 98.535156 66.542969 C 98.386719 66.242188 98.535156 65.71875 98.683594 65.496094 C 98.910156 65.195312 99.355469 64.972656 99.65625 64.972656 C 100.03125 65.046875 100.703125 65.570312 100.777344 65.871094 C 100.851562 66.242188 100.628906 66.992188 100.253906 67.140625 C 99.957031 67.367188 98.984375 67.289062 98.757812 66.917969 C 98.308594 66.394531 98.535156 64.523438 99.058594 63.773438 C 99.582031 63.027344 101.375 62.429688 102.050781 62.578125 C 102.5 62.726562 102.871094 63.25 102.949219 63.773438 C 103.023438 64.671875 102.050781 67.140625 101.300781 67.664062 C 100.777344 67.964844 100.105469 67.8125 99.65625 67.589844 C 98.910156 67.140625 97.710938 65.347656 97.636719 64.523438 C 97.636719 64 98.011719 63.25 98.386719 63.175781 C 98.683594 63.027344 99.804688 63.625 99.804688 63.625 " clip-rule="nonzero"/></clipPath><clipPath id="fae7632233"><path d="M 32.421875 61 L 41.449219 61 L 41.449219 67.679688 L 32.421875 67.679688 Z M 32.421875 61 " clip-rule="nonzero"/></clipPath><clipPath id="b7679adac0"><path d="M 34.355469 64 C 37.570312 64.523438 38.394531 64.375 38.769531 64 C 39.144531 63.699219 39.144531 62.726562 39.441406 62.726562 C 39.667969 62.652344 40.414062 63.324219 40.339844 63.476562 C 40.265625 63.773438 37.871094 63.402344 36.824219 63.699219 C 35.925781 63.925781 34.65625 65.046875 34.503906 64.972656 C 34.429688 64.898438 34.953125 63.851562 35.253906 63.851562 C 35.703125 63.851562 36.300781 65.871094 36.898438 65.945312 C 37.421875 66.019531 38.46875 65.046875 38.46875 65.046875 C 38.542969 65.121094 37.347656 66.242188 36.898438 66.167969 C 36.597656 66.167969 36.152344 65.496094 36.152344 65.121094 C 36.152344 64.746094 36.375 64.148438 36.675781 64.074219 C 37.046875 63.925781 38.320312 64.449219 38.46875 64.898438 C 38.621094 65.195312 38.171875 65.945312 37.871094 66.167969 C 37.570312 66.316406 37.046875 66.242188 36.75 66.09375 C 36.449219 65.945312 36.152344 65.496094 36.152344 65.195312 C 36.152344 64.820312 36.597656 64 36.898438 64 C 37.347656 63.925781 38.46875 64.746094 38.46875 65.121094 C 38.542969 65.496094 37.570312 66.242188 37.199219 66.242188 C 36.824219 66.242188 36.449219 65.046875 36.152344 65.121094 C 35.777344 65.195312 35.253906 67.664062 35.253906 67.664062 C 35.179688 67.664062 35.851562 66.394531 35.628906 66.019531 C 35.253906 65.570312 33.308594 66.019531 32.859375 65.570312 C 32.558594 65.347656 32.410156 64.820312 32.484375 64.449219 C 32.558594 63.925781 32.933594 63.324219 33.53125 62.878906 C 34.503906 62.128906 36.972656 61.304688 38.320312 61.15625 C 39.21875 61.007812 40.265625 60.933594 40.789062 61.382812 C 41.3125 61.832031 41.535156 63.175781 41.386719 63.925781 C 41.238281 64.671875 40.414062 65.570312 39.667969 66.019531 C 38.84375 66.542969 37.648438 66.691406 36.597656 66.691406 C 35.628906 66.765625 34.355469 66.617188 33.757812 66.167969 C 33.308594 65.792969 32.859375 65.046875 33.007812 64.671875 C 33.082031 64.296875 34.355469 64 34.355469 64 " clip-rule="nonzero"/></clipPath><clipPath id="5635e7f9a2"><path d="M 31.640625 77.289062 L 41.785156 77.289062 L 41.785156 81.6875 L 31.640625 81.6875 Z M 31.640625 77.289062 " clip-rule="nonzero"/></clipPath><clipPath id="45b16e1640"><path d="M 33.382812 79.109375 C 41.238281 79.257812 41.6875 79.632812 41.761719 80.007812 C 41.761719 80.304688 41.3125 80.980469 40.714844 81.128906 C 39.292969 81.578125 33.832031 80.378906 32.558594 79.484375 C 32.035156 79.183594 31.664062 78.660156 31.664062 78.285156 C 31.738281 77.914062 32.335938 77.386719 32.636719 77.386719 C 33.007812 77.464844 33.757812 78.4375 33.683594 78.808594 C 33.609375 79.109375 32.710938 79.558594 32.335938 79.484375 C 32.035156 79.332031 31.664062 78.734375 31.664062 78.359375 C 31.664062 78.0625 32.035156 77.613281 32.484375 77.464844 C 33.53125 77.015625 36.898438 77.761719 38.542969 78.285156 C 39.816406 78.660156 41.609375 79.410156 41.761719 80.007812 C 41.761719 80.378906 41.238281 80.980469 40.5625 81.277344 C 39.21875 81.800781 34.65625 81.800781 33.382812 81.277344 C 32.785156 81.054688 32.335938 80.679688 32.261719 80.378906 C 32.261719 80.007812 33.382812 79.109375 33.382812 79.109375 " clip-rule="nonzero"/></clipPath><clipPath id="6953d8fb12"><path d="M 6.222656 77.566406 L 16.597656 77.566406 L 16.597656 81.929688 L 6.222656 81.929688 Z M 6.222656 77.566406 " clip-rule="nonzero"/></clipPath><clipPath id="d602abc727"><path d="M 8.550781 79.410156 C 16.105469 79.632812 16.554688 80.007812 16.554688 80.304688 C 16.628906 80.679688 16.179688 81.203125 15.582031 81.429688 C 14.234375 81.875 8.398438 80.378906 7.128906 79.632812 C 6.605469 79.410156 6.304688 79.109375 6.230469 78.808594 C 6.230469 78.511719 6.378906 78.136719 6.605469 77.914062 C 6.828125 77.761719 7.277344 77.613281 7.503906 77.761719 C 7.800781 77.835938 8.25 78.359375 8.25 78.660156 C 8.25 79.035156 7.800781 79.558594 7.503906 79.632812 C 7.277344 79.707031 6.828125 79.632812 6.605469 79.410156 C 6.378906 79.257812 6.230469 78.882812 6.230469 78.585938 C 6.304688 78.285156 6.605469 77.835938 7.054688 77.6875 C 8.175781 77.3125 11.914062 78.0625 13.636719 78.660156 C 14.832031 79.035156 16.328125 79.484375 16.554688 80.082031 C 16.628906 80.457031 16.328125 81.128906 15.878906 81.429688 C 14.757812 82.101562 9.820312 82.027344 8.550781 81.503906 C 7.949219 81.203125 7.503906 80.679688 7.578125 80.304688 C 7.578125 80.007812 8.550781 79.410156 8.550781 79.410156 " clip-rule="nonzero"/></clipPath><clipPath id="c90b473b0a"><path d="M 8.066406 61.929688 L 15.960938 61.929688 L 15.960938 67.402344 L 8.066406 67.402344 Z M 8.066406 61.929688 " clip-rule="nonzero"/></clipPath><clipPath id="5025e18674"><path d="M 10.195312 63.027344 C 11.464844 64.597656 13.785156 65.121094 13.933594 64.820312 C 14.085938 64.671875 12.289062 63.175781 12.289062 63.175781 C 12.214844 63.175781 12.960938 63.773438 13.039062 64.222656 C 13.261719 64.898438 13.1875 66.46875 12.8125 66.992188 C 12.589844 67.289062 12.066406 67.441406 11.765625 67.367188 C 11.390625 67.367188 10.792969 66.839844 10.71875 66.46875 C 10.570312 66.167969 10.71875 65.644531 10.941406 65.421875 C 11.167969 65.121094 11.988281 64.898438 12.363281 65.046875 C 12.664062 65.195312 13.039062 65.644531 13.039062 65.945312 C 13.039062 66.394531 11.988281 67.441406 11.617188 67.367188 C 11.242188 67.289062 10.644531 65.945312 10.792969 65.570312 C 10.941406 65.195312 11.839844 64.898438 12.214844 65.046875 C 12.515625 65.046875 12.960938 65.496094 13.039062 65.792969 C 13.113281 66.167969 12.886719 66.992188 12.515625 67.214844 C 12.214844 67.441406 11.316406 67.367188 10.941406 66.992188 C 10.496094 66.542969 10.195312 64.523438 10.570312 63.699219 C 10.867188 62.953125 12.066406 62.277344 12.738281 62.203125 C 13.1875 62.203125 13.859375 62.503906 14.011719 62.878906 C 14.160156 63.402344 13.484375 64.898438 12.886719 65.195312 C 12.363281 65.496094 11.316406 65.421875 10.867188 65.046875 C 10.496094 64.746094 10.269531 64 10.269531 63.550781 C 10.34375 63.101562 10.496094 62.726562 10.867188 62.429688 C 11.464844 62.054688 12.886719 61.832031 13.710938 62.054688 C 14.535156 62.277344 15.65625 63.027344 15.878906 63.773438 C 16.105469 64.523438 15.582031 66.09375 14.832031 66.617188 C 14.011719 67.214844 11.839844 67.140625 10.71875 66.617188 C 9.597656 66.09375 8.101562 64.375 8.101562 63.550781 C 8.101562 63.101562 8.699219 62.503906 9.074219 62.429688 C 9.371094 62.355469 10.195312 63.027344 10.195312 63.027344 " clip-rule="nonzero"/></clipPath><clipPath id="d4aa65cee3"><path d="M 0 0.121094 L 109.957031 0.121094 L 109.957031 89.878906 L 0 89.878906 Z M 0 0.121094 " clip-rule="nonzero"/></clipPath></defs><g clip-path="url(#617a3a5fcd)"><g clip-path="url(#e06c9c778a)"><path fill="#e7191f" d="M 19.546875 12.910156 L 53.339844 12.910156 L 53.339844 34.378906 L 19.546875 34.378906 Z M 19.546875 12.910156 " fill-opacity="1" fill-rule="nonzero"/></g></g><g clip-path="url(#40d521d608)"><g clip-path="url(#5a2e56c369)"><path fill="#e7191f" d="M 61.359375 52.105469 L 78.628906 52.105469 L 78.628906 66.992188 L 61.359375 66.992188 Z M 61.359375 52.105469 " fill-opacity="1" fill-rule="nonzero"/></g></g><g clip-path="url(#c8bba27114)"><g clip-path="url(#a5577e88f5)"><path fill="#e7191f" d="M 58.890625 72.75 L 81.734375 72.75 L 81.734375 90.105469 L 58.890625 90.105469 Z M 58.890625 72.75 " fill-opacity="1" fill-rule="nonzero"/></g></g><g clip-path="url(#e913f91d73)"><g clip-path="url(#60eef9cf6d)"><path fill="#e7191f" d="M 90.980469 74.546875 L 105.558594 74.546875 L 105.558594 84.417969 L 90.980469 84.417969 Z M 90.980469 74.546875 " fill-opacity="1" fill-rule="nonzero"/></g></g><g clip-path="url(#337050f2fb)"><g clip-path="url(#822db300a3)"><path fill="#e7191f" d="M 94.644531 59.585938 L 105.929688 59.585938 L 105.929688 70.65625 L 94.644531 70.65625 Z M 94.644531 59.585938 " fill-opacity="1" fill-rule="nonzero"/></g></g><g clip-path="url(#fae7632233)"><g clip-path="url(#b7679adac0)"><path fill="#e7191f" d="M 29.492188 58.164062 L 44.472656 58.164062 L 44.472656 70.65625 L 29.492188 70.65625 Z M 29.492188 58.164062 " fill-opacity="1" fill-rule="nonzero"/></g></g><g clip-path="url(#5635e7f9a2)"><g clip-path="url(#45b16e1640)"><path fill="#e7191f" d="M 28.671875 74.398438 L 44.753906 74.398438 L 44.753906 84.269531 L 28.671875 84.269531 Z M 28.671875 74.398438 " fill-opacity="1" fill-rule="nonzero"/></g></g><g clip-path="url(#6953d8fb12)"><g clip-path="url(#d602abc727)"><path fill="#e7191f" d="M 3.238281 74.695312 L 19.542969 74.695312 L 19.542969 84.496094 L 3.238281 84.496094 Z M 3.238281 74.695312 " fill-opacity="1" fill-rule="nonzero"/></g></g><g clip-path="url(#c90b473b0a)"><g clip-path="url(#5025e18674)"><path fill="#e7191f" d="M 5.109375 59.0625 L 18.960938 59.0625 L 18.960938 70.355469 L 5.109375 70.355469 Z M 5.109375 59.0625 " fill-opacity="1" fill-rule="nonzero"/></g></g><g clip-path="url(#d4aa65cee3)"><path fill="#5e17eb" d="M 34.511719 0.171875 C 21.503906 0.171875 10.96875 10.722656 10.96875 23.730469 C 10.96875 36.738281 21.503906 47.273438 34.511719 47.273438 C 40.1875 47.273438 45.402344 45.265625 49.46875 41.921875 L 58.121094 45.097656 L 54.050781 36.890625 C 56.589844 33.132812 58.070312 28.605469 58.070312 23.730469 C 58.070312 10.722656 47.519531 0.167969 34.511719 0.167969 Z M 67.824219 48.296875 C 60.859375 48.296875 55.207031 53.554688 55.207031 60.039062 C 55.207031 66.519531 60.859375 71.769531 67.824219 71.769531 C 74.785156 71.769531 80.421875 66.519531 80.421875 60.039062 C 80.421875 53.554688 74.785156 48.296875 67.824219 48.296875 Z M 10.730469 58.144531 C 6.375 58.144531 2.835938 61.433594 2.835938 65.492188 C 2.835938 69.550781 6.375 72.828125 10.730469 72.828125 C 15.085938 72.828125 18.625 69.550781 18.625 65.492188 C 18.625 61.433594 15.085938 58.144531 10.730469 58.144531 Z M 36.105469 58.144531 C 31.75 58.144531 28.210938 61.433594 28.210938 65.492188 C 28.210938 69.550781 31.75 72.828125 36.105469 72.828125 C 40.464844 72.828125 43.988281 69.550781 43.988281 65.492188 C 43.988281 61.433594 40.464844 58.144531 36.105469 58.144531 Z M 99.535156 58.144531 C 95.179688 58.144531 91.640625 61.433594 91.640625 65.492188 C 91.640625 69.550781 95.179688 72.828125 99.535156 72.828125 C 103.894531 72.828125 107.417969 69.550781 107.417969 65.492188 C 107.417969 61.433594 103.894531 58.144531 99.535156 58.144531 Z M 59.566406 73.375 C 54.75 73.375 50.863281 77.25 50.863281 82.066406 L 50.863281 89.886719 L 84.769531 89.886719 L 84.769531 82.066406 C 84.769531 77.25 80.894531 73.375 76.078125 73.375 Z M 5.5625 74.929688 C 2.546875 74.929688 0.121094 77.359375 0.121094 80.371094 L 0.121094 85.265625 L 21.339844 85.265625 L 21.339844 80.371094 C 21.339844 77.359375 18.914062 74.929688 15.898438 74.929688 Z M 30.9375 74.929688 C 27.925781 74.929688 25.496094 77.359375 25.496094 80.371094 L 25.496094 85.265625 L 46.714844 85.265625 L 46.714844 80.371094 C 46.714844 77.359375 44.289062 74.929688 41.273438 74.929688 Z M 94.367188 74.929688 C 91.355469 74.929688 88.925781 77.359375 88.925781 80.371094 L 88.925781 85.265625 L 110.144531 85.265625 L 110.144531 80.371094 C 110.144531 77.359375 107.71875 74.929688 104.703125 74.929688 Z M 94.367188 74.929688 " fill-opacity="1" fill-rule="nonzero"/></g></svg>